<mxfile host="Electron" modified="2024-07-26T07:31:59.958Z" agent="Mozilla/5.0 (Windows NT 10.0; Win64; x64) AppleWebKit/537.36 (KHTML, like Gecko) draw.io/24.6.4 Chrome/124.0.6367.207 Electron/30.0.6 Safari/537.36" etag="ShvOlDfNfUu5zGp_JbGb" version="24.6.4" type="device">
  <diagram name="第 1 页" id="HdhGlch08owWvEyls4Us">
    <mxGraphModel dx="1183" dy="685" grid="1" gridSize="10" guides="1" tooltips="1" connect="1" arrows="1" fold="1" page="1" pageScale="1" pageWidth="3300" pageHeight="4681" math="0" shadow="0">
      <root>
        <mxCell id="0" />
        <mxCell id="1" parent="0" />
        <mxCell id="BEPI5pBOJdjKAInudxjg-11" value="" style="edgeStyle=orthogonalEdgeStyle;rounded=0;orthogonalLoop=1;jettySize=auto;html=1;" parent="1" source="BEPI5pBOJdjKAInudxjg-1" target="BEPI5pBOJdjKAInudxjg-2" edge="1">
          <mxGeometry relative="1" as="geometry" />
        </mxCell>
        <mxCell id="BEPI5pBOJdjKAInudxjg-1" value="&lt;font color=&quot;#ff0303&quot;&gt;UWorld::SetupPhysicsTickFunctions&lt;/font&gt;&lt;br&gt;&lt;div style=&quot;text-align: left;&quot;&gt;&lt;span style=&quot;background-color: initial;&quot;&gt;1. StartPhysicsTickFunction（TG_StartPhysics）&lt;/span&gt;&lt;/div&gt;&lt;div style=&quot;text-align: left;&quot;&gt;&lt;span style=&quot;background-color: initial;&quot;&gt;EndPhysicsTickFunction(TG_EndPhysics)&lt;/span&gt;&lt;/div&gt;&lt;div style=&quot;text-align: left;&quot;&gt;&lt;span style=&quot;background-color: initial;&quot;&gt;前置Tick是StartPhysics....&lt;/span&gt;&lt;/div&gt;&lt;div style=&quot;text-align: left;&quot;&gt;&lt;span style=&quot;background-color: initial;&quot;&gt;2. 设置物理帧的频率 1/30（可配置）&lt;/span&gt;&lt;/div&gt;" style="rounded=0;whiteSpace=wrap;html=1;" parent="1" vertex="1">
          <mxGeometry x="50" y="60" width="300" height="80" as="geometry" />
        </mxCell>
        <mxCell id="BEPI5pBOJdjKAInudxjg-12" value="" style="edgeStyle=orthogonalEdgeStyle;rounded=0;orthogonalLoop=1;jettySize=auto;html=1;" parent="1" source="BEPI5pBOJdjKAInudxjg-2" target="BEPI5pBOJdjKAInudxjg-3" edge="1">
          <mxGeometry relative="1" as="geometry" />
        </mxCell>
        <mxCell id="BEPI5pBOJdjKAInudxjg-2" value="TG_PrePhysics" style="rounded=0;whiteSpace=wrap;html=1;" parent="1" vertex="1">
          <mxGeometry x="140" y="200" width="120" height="60" as="geometry" />
        </mxCell>
        <mxCell id="BEPI5pBOJdjKAInudxjg-9" value="" style="edgeStyle=orthogonalEdgeStyle;rounded=0;orthogonalLoop=1;jettySize=auto;html=1;" parent="1" source="BEPI5pBOJdjKAInudxjg-3" target="BEPI5pBOJdjKAInudxjg-7" edge="1">
          <mxGeometry relative="1" as="geometry" />
        </mxCell>
        <mxCell id="BEPI5pBOJdjKAInudxjg-13" value="" style="edgeStyle=orthogonalEdgeStyle;rounded=0;orthogonalLoop=1;jettySize=auto;html=1;" parent="1" source="BEPI5pBOJdjKAInudxjg-3" target="BEPI5pBOJdjKAInudxjg-4" edge="1">
          <mxGeometry relative="1" as="geometry" />
        </mxCell>
        <mxCell id="BEPI5pBOJdjKAInudxjg-3" value="TG_StartPhysics" style="rounded=0;whiteSpace=wrap;html=1;" parent="1" vertex="1">
          <mxGeometry x="140" y="310" width="120" height="60" as="geometry" />
        </mxCell>
        <mxCell id="BEPI5pBOJdjKAInudxjg-14" value="" style="edgeStyle=orthogonalEdgeStyle;rounded=0;orthogonalLoop=1;jettySize=auto;html=1;" parent="1" source="BEPI5pBOJdjKAInudxjg-4" target="BEPI5pBOJdjKAInudxjg-5" edge="1">
          <mxGeometry relative="1" as="geometry" />
        </mxCell>
        <mxCell id="BEPI5pBOJdjKAInudxjg-4" value="TG_DuringPhysics" style="rounded=0;whiteSpace=wrap;html=1;" parent="1" vertex="1">
          <mxGeometry x="140" y="440" width="120" height="60" as="geometry" />
        </mxCell>
        <mxCell id="BEPI5pBOJdjKAInudxjg-15" value="" style="edgeStyle=orthogonalEdgeStyle;rounded=0;orthogonalLoop=1;jettySize=auto;html=1;" parent="1" source="BEPI5pBOJdjKAInudxjg-5" target="BEPI5pBOJdjKAInudxjg-6" edge="1">
          <mxGeometry relative="1" as="geometry" />
        </mxCell>
        <mxCell id="BEPI5pBOJdjKAInudxjg-5" value="TG_EndPhysics" style="rounded=0;whiteSpace=wrap;html=1;" parent="1" vertex="1">
          <mxGeometry x="140" y="570" width="120" height="60" as="geometry" />
        </mxCell>
        <mxCell id="BEPI5pBOJdjKAInudxjg-6" value="TG_PostPhysics" style="rounded=0;whiteSpace=wrap;html=1;" parent="1" vertex="1">
          <mxGeometry x="140" y="710" width="120" height="60" as="geometry" />
        </mxCell>
        <mxCell id="BEPI5pBOJdjKAInudxjg-10" value="" style="edgeStyle=orthogonalEdgeStyle;rounded=0;orthogonalLoop=1;jettySize=auto;html=1;" parent="1" source="BEPI5pBOJdjKAInudxjg-7" target="BEPI5pBOJdjKAInudxjg-8" edge="1">
          <mxGeometry relative="1" as="geometry" />
        </mxCell>
        <mxCell id="BEPI5pBOJdjKAInudxjg-7" value="StartPhysicsTickFunction-&amp;gt;ExecuteTick()" style="rounded=0;whiteSpace=wrap;html=1;" parent="1" vertex="1">
          <mxGeometry x="330" y="310" width="270" height="60" as="geometry" />
        </mxCell>
        <mxCell id="BEPI5pBOJdjKAInudxjg-17" value="" style="edgeStyle=orthogonalEdgeStyle;rounded=0;orthogonalLoop=1;jettySize=auto;html=1;" parent="1" source="BEPI5pBOJdjKAInudxjg-8" target="BEPI5pBOJdjKAInudxjg-16" edge="1">
          <mxGeometry relative="1" as="geometry" />
        </mxCell>
        <mxCell id="BEPI5pBOJdjKAInudxjg-8" value="UWorld::StartPhysicsSim()" style="rounded=0;whiteSpace=wrap;html=1;" parent="1" vertex="1">
          <mxGeometry x="660" y="310" width="160" height="60" as="geometry" />
        </mxCell>
        <mxCell id="BEPI5pBOJdjKAInudxjg-19" value="" style="edgeStyle=orthogonalEdgeStyle;rounded=0;orthogonalLoop=1;jettySize=auto;html=1;" parent="1" source="BEPI5pBOJdjKAInudxjg-16" target="BEPI5pBOJdjKAInudxjg-18" edge="1">
          <mxGeometry relative="1" as="geometry" />
        </mxCell>
        <mxCell id="BEPI5pBOJdjKAInudxjg-16" value="FChaosScene::StartFrame" style="whiteSpace=wrap;html=1;rounded=0;" parent="1" vertex="1">
          <mxGeometry x="880" y="310" width="170" height="60" as="geometry" />
        </mxCell>
        <mxCell id="BEPI5pBOJdjKAInudxjg-18" value="&lt;font color=&quot;#f01a02&quot;&gt;创建物理模拟Task&lt;/font&gt;&lt;br&gt;&lt;div style=&quot;text-align: left;&quot;&gt;&lt;span style=&quot;background-color: initial;&quot;&gt;1. FGraphEventRef FPhysicsSolverBase::AdvanceAndDispatch_External(FReal InDt)&lt;/span&gt;&lt;/div&gt;&lt;div style=&quot;text-align: left;&quot;&gt;&lt;span style=&quot;background-color: initial;&quot;&gt;2. 创建一个&amp;nbsp;FPhysicsSolverProcessPushDataTask，如果上次的任务没有完成就把上次的任务作为当前任务的前置任务&lt;/span&gt;&lt;/div&gt;&lt;div style=&quot;text-align: left;&quot;&gt;&lt;span style=&quot;background-color: initial;&quot;&gt;2. FPhysicsSolverFrozenGTPreSimCallbacks此类型任务， 如果之前添加过必须等待当前模拟完成的任务就把此任务也添加到前置任务里&lt;br&gt;3. 创建&amp;nbsp;&lt;/span&gt;FPhysicsSolverAdvanceTask&lt;/div&gt;" style="whiteSpace=wrap;html=1;rounded=0;" parent="1" vertex="1">
          <mxGeometry x="1160" y="265" width="505" height="150" as="geometry" />
        </mxCell>
        <mxCell id="BEPI5pBOJdjKAInudxjg-80" value="" style="group" parent="1" vertex="1" connectable="0">
          <mxGeometry x="1740" y="40" width="770" height="580" as="geometry" />
        </mxCell>
        <mxCell id="BEPI5pBOJdjKAInudxjg-79" value="" style="rounded=0;whiteSpace=wrap;html=1;movable=0;resizable=0;rotatable=0;deletable=0;editable=0;locked=1;connectable=0;" parent="BEPI5pBOJdjKAInudxjg-80" vertex="1">
          <mxGeometry width="770" height="580" as="geometry" />
        </mxCell>
        <mxCell id="BEPI5pBOJdjKAInudxjg-64" value="FChaosScene::StartFrame" style="rounded=0;whiteSpace=wrap;html=1;movable=0;resizable=0;rotatable=0;deletable=0;editable=0;locked=1;connectable=0;" parent="BEPI5pBOJdjKAInudxjg-80" vertex="1">
          <mxGeometry x="60" y="55" width="250" height="35" as="geometry" />
        </mxCell>
        <mxCell id="BEPI5pBOJdjKAInudxjg-66" value="FPhysicsSolverProcessPushDataTask" style="whiteSpace=wrap;html=1;rounded=0;movable=0;resizable=0;rotatable=0;deletable=0;editable=0;locked=1;connectable=0;" parent="BEPI5pBOJdjKAInudxjg-80" vertex="1">
          <mxGeometry x="51.25" y="170" width="267.5" height="40" as="geometry" />
        </mxCell>
        <mxCell id="BEPI5pBOJdjKAInudxjg-67" value="" style="edgeStyle=orthogonalEdgeStyle;rounded=0;orthogonalLoop=1;jettySize=auto;html=1;movable=0;resizable=0;rotatable=0;deletable=0;editable=0;locked=1;connectable=0;" parent="BEPI5pBOJdjKAInudxjg-80" source="BEPI5pBOJdjKAInudxjg-64" target="BEPI5pBOJdjKAInudxjg-66" edge="1">
          <mxGeometry relative="1" as="geometry" />
        </mxCell>
        <mxCell id="BEPI5pBOJdjKAInudxjg-68" value="bSolverHasFrozenGameThreadCallbacks" style="rhombus;whiteSpace=wrap;html=1;rounded=0;movable=0;resizable=0;rotatable=0;deletable=0;editable=0;locked=1;connectable=0;" parent="BEPI5pBOJdjKAInudxjg-80" vertex="1">
          <mxGeometry x="27.5" y="300" width="315" height="80" as="geometry" />
        </mxCell>
        <mxCell id="BEPI5pBOJdjKAInudxjg-69" value="" style="edgeStyle=orthogonalEdgeStyle;rounded=0;orthogonalLoop=1;jettySize=auto;html=1;movable=0;resizable=0;rotatable=0;deletable=0;editable=0;locked=1;connectable=0;" parent="BEPI5pBOJdjKAInudxjg-80" source="BEPI5pBOJdjKAInudxjg-66" target="BEPI5pBOJdjKAInudxjg-68" edge="1">
          <mxGeometry relative="1" as="geometry" />
        </mxCell>
        <mxCell id="BEPI5pBOJdjKAInudxjg-70" value="FPhysicsSolverFrozenGTPreSimCallbacks" style="whiteSpace=wrap;html=1;rounded=0;movable=0;resizable=0;rotatable=0;deletable=0;editable=0;locked=1;connectable=0;" parent="BEPI5pBOJdjKAInudxjg-80" vertex="1">
          <mxGeometry x="52.5" y="480" width="265" height="50" as="geometry" />
        </mxCell>
        <mxCell id="BEPI5pBOJdjKAInudxjg-71" value="" style="edgeStyle=orthogonalEdgeStyle;rounded=0;orthogonalLoop=1;jettySize=auto;html=1;movable=0;resizable=0;rotatable=0;deletable=0;editable=0;locked=1;connectable=0;" parent="BEPI5pBOJdjKAInudxjg-80" source="BEPI5pBOJdjKAInudxjg-68" target="BEPI5pBOJdjKAInudxjg-70" edge="1">
          <mxGeometry relative="1" as="geometry" />
        </mxCell>
        <mxCell id="BEPI5pBOJdjKAInudxjg-72" value="Yes" style="edgeLabel;html=1;align=center;verticalAlign=middle;resizable=0;points=[];movable=0;rotatable=0;deletable=0;editable=0;locked=1;connectable=0;" parent="BEPI5pBOJdjKAInudxjg-71" vertex="1" connectable="0">
          <mxGeometry x="-0.18" y="2" relative="1" as="geometry">
            <mxPoint as="offset" />
          </mxGeometry>
        </mxCell>
        <mxCell id="BEPI5pBOJdjKAInudxjg-77" style="edgeStyle=orthogonalEdgeStyle;rounded=0;orthogonalLoop=1;jettySize=auto;html=1;exitX=0.5;exitY=0;exitDx=0;exitDy=0;entryX=1;entryY=0.5;entryDx=0;entryDy=0;movable=0;resizable=0;rotatable=0;deletable=0;editable=0;locked=1;connectable=0;" parent="BEPI5pBOJdjKAInudxjg-80" source="BEPI5pBOJdjKAInudxjg-73" target="BEPI5pBOJdjKAInudxjg-66" edge="1">
          <mxGeometry relative="1" as="geometry" />
        </mxCell>
        <mxCell id="BEPI5pBOJdjKAInudxjg-78" value="是否完成" style="edgeLabel;html=1;align=center;verticalAlign=middle;resizable=0;points=[];movable=0;rotatable=0;deletable=0;editable=0;locked=1;connectable=0;" parent="BEPI5pBOJdjKAInudxjg-77" vertex="1" connectable="0">
          <mxGeometry x="0.1296" relative="1" as="geometry">
            <mxPoint as="offset" />
          </mxGeometry>
        </mxCell>
        <mxCell id="BEPI5pBOJdjKAInudxjg-73" value="FPhysicsSolverAdvanceTask&lt;br&gt;1. &lt;font color=&quot;#ff1808&quot;&gt;物理模拟&lt;/font&gt;" style="whiteSpace=wrap;html=1;rounded=0;movable=1;resizable=1;rotatable=1;deletable=1;editable=1;locked=0;connectable=1;" parent="BEPI5pBOJdjKAInudxjg-80" vertex="1">
          <mxGeometry x="470" y="310" width="270" height="55" as="geometry" />
        </mxCell>
        <mxCell id="BEPI5pBOJdjKAInudxjg-74" value="" style="edgeStyle=orthogonalEdgeStyle;rounded=0;orthogonalLoop=1;jettySize=auto;html=1;movable=0;resizable=0;rotatable=0;deletable=0;editable=0;locked=1;connectable=0;" parent="BEPI5pBOJdjKAInudxjg-80" source="BEPI5pBOJdjKAInudxjg-68" target="BEPI5pBOJdjKAInudxjg-73" edge="1">
          <mxGeometry relative="1" as="geometry" />
        </mxCell>
        <mxCell id="BEPI5pBOJdjKAInudxjg-76" value="No" style="edgeLabel;html=1;align=center;verticalAlign=middle;resizable=0;points=[];movable=0;rotatable=0;deletable=0;editable=0;locked=1;connectable=0;" parent="BEPI5pBOJdjKAInudxjg-74" vertex="1" connectable="0">
          <mxGeometry x="-0.0196" y="2" relative="1" as="geometry">
            <mxPoint as="offset" />
          </mxGeometry>
        </mxCell>
        <mxCell id="BEPI5pBOJdjKAInudxjg-75" style="edgeStyle=orthogonalEdgeStyle;rounded=0;orthogonalLoop=1;jettySize=auto;html=1;exitX=1;exitY=0.5;exitDx=0;exitDy=0;entryX=0.5;entryY=1;entryDx=0;entryDy=0;movable=0;resizable=0;rotatable=0;deletable=0;editable=0;locked=1;connectable=0;" parent="BEPI5pBOJdjKAInudxjg-80" source="BEPI5pBOJdjKAInudxjg-70" target="BEPI5pBOJdjKAInudxjg-73" edge="1">
          <mxGeometry relative="1" as="geometry" />
        </mxCell>
      </root>
    </mxGraphModel>
  </diagram>
</mxfile>
